<svg width="250" height="72" viewBox="0 0 250 72" fill="none" xmlns="http://www.w3.org/2000/svg">
    <g clip-path="url(#clip0_381_14665)">
        <path d="M70.4265 71.847H64.3684V60.7275H70.4265V62.0033H65.8193V65.4458H70.2479V66.7238H65.8193V70.551H70.4265V71.847ZM85.5314 66.1658C85.5314 66.6788 85.4934 67.1895 85.4153 67.6958C85.3412 68.1627 85.2139 68.6195 85.0358 69.057C84.8659 69.4699 84.6373 69.8557 84.3573 70.2023C84.0706 70.5531 83.7254 70.8509 83.3372 71.082C82.9002 71.3392 82.4278 71.5295 81.9354 71.6468C81.3407 71.7871 80.7314 71.8543 80.1207 71.847H77.8305V60.7275H80.5805C82.2457 60.7275 83.4867 61.1753 84.3037 62.0685C85.1207 62.964 85.5314 64.3298 85.5314 66.1658ZM84.0068 66.2738C84.019 65.6016 83.9485 64.9305 83.797 64.2758C83.6833 63.7917 83.462 63.3401 83.1497 62.955C82.8592 62.6207 82.4855 62.3706 82.0671 62.2305C81.5711 62.0701 81.0522 61.9933 80.5314 62.0033H79.2836V70.533H80.3707C82.7948 70.5353 84.009 69.1155 84.0068 66.2738ZM99.9287 67.977C99.9361 68.5397 99.8524 69.0998 99.6809 69.6353C99.5291 70.1078 99.2791 70.5398 98.9488 70.902C98.6217 71.2573 98.2197 71.5341 97.7724 71.712C97.2616 71.9111 96.7173 72.0082 96.1698 71.9978C95.5957 72.0117 95.0238 71.9202 94.4823 71.7278C94.0486 71.5634 93.6605 71.2964 93.3506 70.9493C93.0533 70.6043 92.836 70.1969 92.7144 69.7568C92.5752 69.2514 92.5075 68.7287 92.5135 68.2043V60.7275H93.9666V68.085C93.9622 68.4698 94.0024 68.8545 94.0849 69.2325C94.1519 69.534 94.2836 69.8175 94.4733 70.0583C94.6608 70.2833 94.8997 70.4565 95.172 70.5578C95.5068 70.6793 95.864 70.7378 96.2211 70.7288C96.9912 70.7288 97.5604 70.4948 97.9287 70.0313C98.2925 69.5655 98.48 68.913 98.48 68.067V60.7275H99.9309L99.9287 67.977ZM114.33 71.4285C113.482 71.7998 112.567 71.9865 111.647 71.9843C110.141 71.9843 108.982 71.514 108.17 70.5735C107.357 69.6353 106.953 68.247 106.96 66.411C106.949 65.5931 107.062 64.7782 107.295 63.9945C107.489 63.3259 107.813 62.7027 108.248 62.1608C108.656 61.6635 109.17 61.2653 109.748 60.9975C110.371 60.7185 111.043 60.5813 111.721 60.5903C112.185 60.5858 112.647 60.633 113.101 60.7253C113.525 60.8108 113.933 60.9458 114.326 61.1303V62.6153C113.549 62.1572 112.663 61.9215 111.764 61.9335C111.293 61.9263 110.828 62.0271 110.402 62.2283C109.996 62.4246 109.643 62.7172 109.373 63.081C109.072 63.486 108.851 63.9495 108.719 64.44C108.558 65.0367 108.481 65.6532 108.489 66.2715C108.489 67.716 108.77 68.8005 109.33 69.5295C109.889 70.2585 110.712 70.623 111.793 70.6253C112.236 70.6275 112.678 70.5715 113.107 70.4588C113.525 70.3463 113.931 70.191 114.317 69.993L114.33 71.4285ZM130 71.847H128.415L127.676 69.4215H123.232L122.476 71.847H120.964L124.502 60.7275H126.493L129.998 71.847H130ZM127.259 68.0715L125.455 62.1225L123.652 68.0693L127.259 68.0715ZM142.819 62.0213H139.665V71.847H138.203V62.0213H135.04V60.7275H142.822L142.819 62.0213ZM152.451 62.0033H149.996V60.7275H156.373V62.0033H153.918V70.5533H156.373V71.847H149.996V70.5555H152.451V62.0033ZM171.284 66.222C171.301 67.0995 171.188 67.9703 170.947 68.8095C170.757 69.462 170.449 70.074 170.038 70.6095C169.679 71.0634 169.218 71.4237 168.692 71.6603C168.152 71.896 167.568 72.0142 166.979 72.0072C166.39 72.0003 165.809 71.8682 165.275 71.6198C164.765 71.3613 164.329 70.9755 164.009 70.4993C163.651 69.9589 163.398 69.3549 163.264 68.7195C163.091 67.942 163.009 67.1469 163.018 66.3503C163.002 65.4818 163.115 64.6158 163.353 63.7808C163.54 63.1283 163.848 62.5163 164.261 61.9808C164.618 61.5263 165.08 61.164 165.601 60.9255C166.114 60.696 166.665 60.579 167.226 60.5813C167.845 60.5669 168.458 60.7011 169.016 60.9728C169.522 61.2338 169.958 61.6185 170.286 62.0933C170.643 62.6288 170.902 63.2295 171.04 63.8663C171.212 64.638 171.293 65.43 171.284 66.222ZM169.772 66.3323C169.776 65.7322 169.728 65.133 169.63 64.5413C169.551 64.0543 169.395 63.5833 169.168 63.1463C168.976 62.7777 168.695 62.4642 168.351 62.235C167.986 62.013 167.566 61.9013 167.141 61.9133C166.722 61.901 166.31 62.0214 165.962 62.2575C165.623 62.4988 165.346 62.8171 165.152 63.1868C164.924 63.6223 164.765 64.0905 164.679 64.575C164.574 65.1308 164.522 65.6955 164.527 66.2625C164.527 66.8655 164.576 67.4685 164.679 68.0625C164.761 68.5485 164.918 69.021 165.141 69.4575C165.333 69.8265 165.612 70.137 165.953 70.3643C166.312 70.5866 166.728 70.6985 167.15 70.686C167.571 70.6973 167.986 70.5771 168.337 70.3418C168.676 70.1033 168.958 69.7838 169.156 69.4125C169.382 68.9783 169.543 68.5125 169.632 68.031C169.736 67.468 169.785 66.896 169.777 66.3233L169.772 66.3323ZM185.556 71.847H183.665L180.556 64.9125L179.663 62.685V71.847H178.301V60.7275H180.17L183.13 67.293L184.197 69.84V60.7275H185.558L185.556 71.847ZM87.3461 21.7958L91.7925 32.814H82.864L81.1586 37.008H93.6988L98.8863 49.6058H104.208L89.9644 15.3608L87.3461 21.7958ZM37.9242 9.58502H22.0939V49.6058H27.143V13.779H36.8305C46.3796 13.779 51.1541 18.684 51.1541 28.4985C51.1541 39.771 46.3774 45.405 36.8305 45.405H31.2345V49.6013H37.9175C50.105 49.6013 56.1988 42.5678 56.1988 28.4985C56.1988 15.8918 50.105 9.58727 37.9198 9.58502H37.9242ZM118.46 9.58502V49.6058H123.161V17.6445L146.672 49.6058H151.641V47.7585L123.429 9.58502H118.46ZM146.942 34.4813L151.641 40.743V9.58502H146.94L146.942 34.4813ZM185.246 9.58502H180.469V49.6058H185.246V9.58502ZM196.228 9.58502V14.4788H210.69V49.6058H215.464V14.4788H229.924V9.58502H196.228Z"
              fill="#40404B"/>
        <path d="M0 59.1908V0H10.3259V4.6845H4.56696V54.504H10.3259V59.1862L4.80804 59.1908H0Z"
              fill="url(#paint0_linear_381_14665)"/>
        <path d="M239.672 54.504H245.433L245.431 4.689L239.672 4.6845V0.0045H245.58L250 0V59.1862H239.672V54.504Z"
              fill="url(#paint1_linear_381_14665)"/>
        <path d="M65.4064 49.6058H70.6452L87.5626 9.58502H81.9689L65.4064 49.6058Z"
              fill="url(#paint2_linear_381_14665)"/>
        <path d="M168.293 44.7075H163.516V49.6057H168.293V44.7075Z" fill="url(#paint3_linear_381_14665)"/>
    </g>
    <defs>
        <linearGradient id="paint0_linear_381_14665" x1="5.16295" y1="64.7662" x2="5.16295" y2="1.188"
                        gradientUnits="userSpaceOnUse">
            <stop stop-color="#4657A3"/>
            <stop offset="1" stop-color="#68C0AE"/>
        </linearGradient>
        <linearGradient id="paint1_linear_381_14665" x1="16962" y1="24716.9" x2="16962" y2="453.37"
                        gradientUnits="userSpaceOnUse">
            <stop stop-color="#4657A3"/>
            <stop offset="1" stop-color="#68C0AE"/>
        </linearGradient>
        <linearGradient id="paint2_linear_381_14665" x1="11272.6" y1="16722.6" x2="11272.6" y2="316.144"
                        gradientUnits="userSpaceOnUse">
            <stop stop-color="#4657A3"/>
            <stop offset="1" stop-color="#68C0AE"/>
        </linearGradient>
        <linearGradient id="paint3_linear_381_14665" x1="5402.79" y1="2089.4" x2="5402.79" y2="82.2129"
                        gradientUnits="userSpaceOnUse">
            <stop stop-color="#4657A3"/>
            <stop offset="1" stop-color="#68C0AE"/>
        </linearGradient>
        <clipPath id="clip0_381_14665">
            <rect width="250" height="72" fill="white"/>
        </clipPath>
    </defs>
</svg>
