<svg width="155" height="36" viewBox="0 0 155 36" fill="none" xmlns="http://www.w3.org/2000/svg">
    <path d="M0 35.076V0H6.40205V2.776H2.83152V32.2987H6.40205V35.0733L2.98098 35.076H0Z" fill="#FEFEFE"/>
    <path d="M148.597 32.2987H152.168L152.167 2.77867L148.597 2.776V0.00266667H152.26L155 0V35.0733H148.597V32.2987Z"
          fill="#FEFEFE"/>
    <path d="M104.341 26.4933H101.38V29.396H104.341V26.4933Z" fill="#FEFEFE"/>
    <g clip-path="url(#clip0_902_1570)">
        <path d="M54.1544 12.9161L56.9112 19.4454H51.3755L50.3182 21.9307H58.0931L61.3094 29.3961H64.6086L55.7778 9.10272L54.1544 12.9161ZM23.5129 5.68005H13.6981V29.3961H16.8285V8.16539H22.8348C28.7552 8.16539 31.7154 11.0721 31.7154 16.8881C31.7154 23.5681 28.7538 26.9067 22.8348 26.9067H19.3652V29.3934H23.5087C31.065 29.3934 34.8431 25.2254 34.8431 16.8881C34.8431 9.41739 31.065 5.68139 23.5101 5.68005H23.5129ZM73.445 5.68005V29.3961H76.3596V10.4561L90.9365 29.3961H94.0171V28.3014L76.5257 5.68005H73.445ZM91.104 20.4334L94.0171 24.1441V5.68005H91.1026L91.104 20.4334ZM114.852 5.68005H111.891V29.3961H114.852V5.68005ZM121.661 5.68005V8.58005H130.628V29.3961H133.588V8.58005H142.553V5.68005H121.661Z"
              fill="#FEFEFE"/>
        <path d="M40.5519 29.3961H43.8L54.2888 5.68005H50.8206L40.5519 29.3961Z" fill="#FEFEFE"/>
    </g>
    <defs>
        <clipPath id="clip0_902_1570">
            <rect width="128.855" height="23.716" fill="white" transform="translate(13.6981 5.68005)"/>
        </clipPath>
    </defs>
</svg>
