<svg xmlns="http://www.w3.org/2000/svg" version="1.1" xmlns:xlink="http://www.w3.org/1999/xlink" xmlns:svgjs="http://svgjs.dev/svgjs" width="2000" height="1500" viewBox="0 0 2000 1500"><rect width="2000" height="1500" fill="#000000"></rect><g transform="matrix(0.4444444444444444,0,0,0.4444444444444444,555.5555555555558,250)"><svg viewBox="0 0 320 360" data-background-color="#ffffff" preserveAspectRatio="xMidYMid meet" height="2250" width="2000" xmlns="http://www.w3.org/2000/svg" xmlns:xlink="http://www.w3.org/1999/xlink"><g id="tight-bounds" transform="matrix(1,0,0,1,0,0)"><svg viewBox="0 0 320 360" height="360" width="320"><g><svg></svg></g><g><svg viewBox="0 0 320 360" height="360" width="320"><g><path d="M320 204.145c-0.08-8.44-5.414-15.128-5.494-23.568-0.04-8.44 5.215-18.631 5.136-27.071-2.667-8.002-9.833-12.7-12.501-20.702-2.667-8.002-0.836-19.348-3.463-27.35-5.016-6.808-13.297-9.037-18.274-15.805-5.016-6.808-6.768-18.154-11.744-24.921-6.847-4.897-15.407-4.499-22.294-9.396-6.847-4.897-12.023-15.168-18.91-20.065-8.042-2.548-16.044 0.518-24.086-2.07-8.042-2.548-16.123-10.709-24.165-13.257-8.44 0.08-15.128 5.414-23.568 5.494-8.44 0.04-18.631-5.215-27.071-5.135-8.002 2.667-12.7 9.833-20.702 12.5-8.002 2.667-19.348 0.836-27.35 3.504-6.808 5.016-9.037 13.297-15.805 18.273-6.808 5.016-18.154 6.768-24.922 11.784-4.897 6.847-4.499 15.407-9.395 22.294-4.897 6.847-15.168 12.023-20.065 18.91-2.548 8.042 0.478 16.044-2.07 24.086-2.548 8.042-10.709 16.123-13.257 24.165 0.04 8.44 5.414 15.128 5.494 23.568 0.04 8.44-5.215 18.631-5.136 27.071 2.667 8.002 9.833 12.7 12.501 20.702 2.667 8.002 0.836 19.348 3.503 27.35 5.016 6.808 13.297 9.037 18.273 15.845 5.016 6.808 6.768 18.154 11.745 24.921 6.847 4.897 15.407 4.499 22.294 9.396 6.847 4.897 12.023 15.168 18.91 20.065 8.042 2.548 16.044-0.478 24.086 2.07 8.042 2.548 16.123 10.709 24.165 13.257 8.44-0.08 15.128-5.414 23.568-5.494 8.44-0.04 18.631 5.215 27.071 5.135 8.002-2.667 12.7-9.833 20.702-12.5 8.002-2.667 19.348-0.836 27.35-3.504 6.808-5.016 9.037-13.297 15.845-18.273 6.808-5.016 18.154-6.768 24.921-11.744 4.897-6.847 4.499-15.407 9.396-22.294 4.897-6.847 15.168-12.023 20.064-18.91 2.548-8.042-0.478-16.044 2.071-24.086 2.468-8.121 10.63-16.203 13.177-24.245zM305.987 227.395c-3.623 7.126-12.501 13.456-16.164 20.582-3.623 7.126-2.03 15.088-5.653 22.215-5.653 5.653-16.044 8.918-21.737 14.57-5.653 5.653-6.569 13.735-12.261 19.388-7.126 3.623-18.034 3.503-25.161 7.166-7.126 3.623-10.51 11.028-17.636 14.651-7.922 1.234-18.233-2.229-26.156-0.996-7.922 1.234-13.416 7.246-21.299 8.48-7.922-1.234-16.641-7.763-24.563-8.997-7.922-1.274-14.969 2.747-22.891 1.473-7.126-3.623-13.456-12.54-20.582-16.163-7.126-3.623-15.088-2.03-22.255-5.654-5.653-5.653-8.918-16.044-14.571-21.736-5.653-5.653-13.735-6.609-19.387-12.262-3.623-7.126-3.503-18.034-7.166-25.161-3.623-7.126-11.028-10.51-14.651-17.636-1.234-7.922 2.229-18.233 0.995-26.156-1.274-7.922-7.246-13.416-8.479-21.298 1.274-7.922 7.763-16.641 8.997-24.564 1.234-7.922-2.747-14.969-1.473-22.891 3.623-7.126 12.54-13.456 16.163-20.582 3.623-7.126 2.03-15.088 5.653-22.254 5.653-5.653 16.044-8.918 21.737-14.571 5.653-5.653 6.609-13.735 12.262-19.388 7.126-3.623 18.034-3.503 25.16-7.166 7.126-3.623 10.51-11.028 17.637-14.651 7.922-1.234 18.233 2.229 26.155 0.996 7.922-1.234 13.416-7.246 21.299-8.48 7.922 1.234 16.641 7.763 24.564 8.997 7.922 1.274 14.969-2.747 22.891-1.473 7.126 3.623 13.456 12.54 20.582 16.163 7.126 3.623 15.088 2.03 22.254 5.654 5.653 5.653 8.918 16.044 14.571 21.736 5.653 5.653 13.735 6.609 19.388 12.262 3.623 7.126 3.503 18.034 7.166 25.161 3.623 7.126 11.028 10.51 14.65 17.636 1.274 7.922-2.229 18.233-0.995 26.156 1.234 7.922 7.246 13.416 8.48 21.298-1.234 7.922-7.763 16.641-8.997 24.564-1.234 7.922 2.747 15.009 1.473 22.931z" fill="#ffffff" fill-rule="nonzero" stroke="none" stroke-width="1" stroke-linecap="butt" stroke-linejoin="miter" stroke-miterlimit="10" stroke-dasharray="" stroke-dashoffset="0" font-family="none" font-weight="none" font-size="none" text-anchor="none" style="mix-blend-mode: normal" data-fill-palette-color="tertiary"></path></g><g transform="matrix(1,0,0,1,48.000000000000014,128.50248175656435)"><svg viewBox="0 0 223.99999999999997 102.99503648687127" height="102.99503648687127" width="223.99999999999997"><g><svg viewBox="0 0 406.5634786647315 186.9375907111756" height="102.99503648687127" width="223.99999999999997"><g transform="matrix(1,0,0,1,182.5634786647315,0)"><svg viewBox="0 0 224 186.9375907111756" height="186.9375907111756" width="224"><g id="textblocktransform"><svg viewBox="0 0 224 186.9375907111756" height="186.9375907111756" width="224" id="textblock"><g><svg viewBox="0 0 224 186.9375907111756" height="186.9375907111756" width="224"><g transform="matrix(1,0,0,1,0,0)"><svg width="224" viewBox="5 -28.75 34.45 28.75" height="186.9375907111756" data-palette-color="#6b7280"><g class="wordmark-text-0" data-fill-palette-color="primary" id="text-0"><path d="M5-28.75L5-28.75 21-28.75 21-22.85 11.3-22.85 11.3-17.2 21-17.2 21-11.35 11.3-11.35 11.3 0 5 0 5-28.75ZM39.45 0L39.45 0 39.45-11.9 34.75-14.35 39.45-16.6 39.45-25.3 33.55-28.75 23.25-28.75 23.25-22.85 33.15-22.85 33.15-17.2 23.25-17.2 23.25-11.35 33.15-11.35 33.15 0 39.45 0Z" fill="#ffffff" data-fill-palette-color="primary"></path></g></svg></g></svg></g></svg></g></svg></g><g transform="matrix(1,0,0,1,0,24.252795355587807)"><svg viewBox="0 0 138.432 138.432" height="138.432" width="138.432"><g data-palette-color="#000000"><rect width="37.83808" height="138.432" fill="#ffffff" stroke="transparent" data-fill-palette-color="accent" x="0" fill-opacity="0.5"></rect><rect width="37.83808" height="138.432" fill="#ffffff" stroke="transparent" data-fill-palette-color="accent" x="46.144" fill-opacity="0.75"></rect><rect width="37.83808" height="138.432" fill="#ffffff" stroke="transparent" data-fill-palette-color="accent" x="92.288" fill-opacity="1"></rect></g></svg></g></svg></g></svg></g></svg></g><defs></defs></svg><rect width="320" height="360" fill="none" stroke="none" visibility="hidden"></rect></g></svg></g></svg>